<svg width="2410" height="2410" viewBox="0 0 2410 2410" fill="none" xmlns="http://www.w3.org/2000/svg">
<path d="M39 1205C39 561.036 561.036 39 1205 39V39C1848.96 39 2371 561.036 2371 1205V1205C2371 1848.96 1848.96 2371 1205 2371V2371C561.036 2371 39 1848.96 39 1205V1205Z" fill="#D9D9D9" stroke="#A59D84" stroke-width="53"/>
<path d="M372.622 1402.36H425.179L548.758 1704.21H553.02L676.599 1402.36H729.156V1766H687.963V1489.72H684.412L570.775 1766H531.003L417.366 1489.72H413.815V1766H372.622V1402.36Z" fill="#4A4538"/>
<path d="M1102.05 1707C1096.58 1690.26 1089.37 1675.26 1080.43 1662.01C1071.64 1648.58 1061.12 1637.15 1048.86 1627.7C1036.76 1618.26 1023 1611.05 1007.59 1606.08C992.18 1601.11 975.276 1598.62 956.881 1598.62C926.72 1598.62 899.294 1606.41 874.601 1621.99C849.909 1637.56 830.271 1660.52 815.688 1690.84C801.105 1721.17 793.813 1758.37 793.813 1802.45C793.813 1846.54 801.188 1883.74 815.937 1914.07C830.686 1944.39 850.655 1967.35 875.844 1982.92C901.034 1998.5 929.372 2006.29 960.859 2006.29C990.025 2006.29 1015.71 2000.08 1037.92 1987.65C1060.29 1975.05 1077.69 1957.32 1090.12 1934.45C1102.71 1911.42 1109.01 1884.32 1109.01 1853.16L1127.9 1857.14H974.779V1802.45H1168.67V1857.14C1168.67 1899.07 1159.72 1935.53 1141.82 1966.52C1124.09 1997.51 1099.57 2021.54 1068.24 2038.61C1037.09 2055.51 1001.29 2063.96 960.859 2063.96C915.783 2063.96 876.176 2053.35 842.037 2032.14C808.065 2010.93 781.55 1980.77 762.492 1941.66C743.6 1902.55 734.154 1856.15 734.154 1802.45C734.154 1762.18 739.54 1725.97 750.312 1693.83C761.249 1661.51 776.661 1634 796.547 1611.3C816.434 1588.59 839.966 1571.19 867.144 1559.1C894.322 1547 924.234 1540.95 956.881 1540.95C983.728 1540.95 1008.75 1545.01 1031.95 1553.13C1055.32 1561.08 1076.12 1572.44 1094.35 1587.18C1112.74 1601.77 1128.07 1619.25 1140.33 1639.63C1152.6 1659.85 1161.05 1682.31 1165.69 1707H1102.05Z" fill="#A59D84"/>
<path d="M493.895 1224.51C503.419 1242.37 516.074 1258.36 531.121 1271.73C560.851 1298.11 599.95 1314.2 642.647 1314.2H813.131C815.415 1314.2 817.426 1314.17 819.174 1314.13C825.628 1306.59 832.625 1299.65 840.076 1293.35C822.233 1277.95 808.811 1257.09 802.694 1232.51C800.997 1225.7 799.915 1218.74 799.455 1211.75C798.999 1204.81 799.16 1197.83 799.942 1190.93C802.006 1172.22 818.87 1158.72 837.606 1160.78C856.342 1162.84 869.855 1179.69 867.79 1198.4C867.447 1201.44 867.375 1204.48 867.57 1207.48C867.763 1210.42 868.22 1213.35 868.939 1216.23C872.256 1229.57 880.648 1240.28 891.529 1246.82C900.309 1252.1 910.712 1254.7 921.409 1253.81C925.194 1253.03 929.005 1252.37 932.841 1251.84L932.987 1251.81C955.745 1248.62 979.316 1249.71 1002.55 1255.47C1020.84 1259.98 1032.02 1278.43 1027.52 1296.72C1023.03 1314.99 1004.55 1326.17 986.245 1321.66C971.883 1318.09 957.274 1317.39 943.123 1319.3C939.773 1320.05 936.424 1320.66 933.08 1321.11C928.06 1322.23 923.124 1323.7 918.304 1325.48C897.586 1333.16 879.073 1346.81 865.466 1365.42C864.877 1366.34 864.244 1367.22 863.569 1368.07C857.932 1375.99 853.441 1384.78 850.356 1394.21C847.293 1403.57 845.635 1413.66 845.635 1424.26C845.635 1451.01 856.609 1475.35 874.292 1493.01C891.974 1510.67 916.333 1521.65 943.101 1521.65C944.443 1521.65 945.767 1521.73 947.068 1521.88C959.929 1522.4 1017.51 1523.47 1073.9 1546.86C1075.89 1527.78 1071.14 1511.7 1078.81 1494.36C1095.46 1456.73 1124.8 1424.66 1163.81 1404.95C1180.62 1396.47 1201.13 1403.23 1209.61 1420.03C1218.1 1436.84 1211.34 1457.33 1194.53 1465.8C1170.12 1478.13 1151.76 1498.23 1141.31 1521.85C1132.41 1541.97 1160.1 1532.21 1163.81 1554.7C1240.39 1608.65 1283.04 1739.57 1295.79 1919.67H1334.27L1402.66 1605.12L1552.28 1434.31C1521.68 1478.95 1418.2 1755.67 1443.21 1780.67C1468.23 1805.67 1502.73 1821.2 1540.64 1821.2C1578.55 1821.2 1613.03 1805.67 1638.06 1780.67C1663.1 1755.67 1678.62 1721.2 1678.62 1683.33V1643.37C1678.62 1609.86 1666.62 1578.81 1646.38 1554.7C1626.15 1530.62 1597.68 1513.42 1564.74 1507.59C1550.6 1505.12 1540.01 1494.29 1537.19 1481.08C1523.65 1436.23 1499.06 1396.4 1466.53 1364.64C1433.41 1332.3 1392.08 1308.36 1345.91 1296.08C1327.71 1291.29 1316.82 1272.65 1321.6 1254.44C1326.41 1236.24 1345.05 1225.36 1363.29 1230.15C1421.09 1245.53 1472.72 1275.43 1514.07 1315.79C1550.72 1351.56 1579.32 1395.58 1597.02 1445.04C1637.61 1456.56 1672.71 1479.93 1698.73 1510.93C1725.38 1542.68 1742.5 1582.39 1746.23 1625.5C1752.29 1629.24 1758.73 1632.35 1765.48 1634.77C1776.19 1638.63 1787.96 1640.73 1800.51 1640.73C1829.1 1640.73 1855.11 1629.02 1874.01 1610.14C1892.9 1591.27 1904.62 1565.26 1904.62 1536.68V1517.08C1868.28 1522.62 1831.81 1517.79 1799.03 1504.14C1760.62 1488.16 1727.26 1460.1 1704.98 1422.47C1695.39 1406.26 1700.77 1385.35 1717 1375.77C1733.21 1366.18 1754.16 1371.56 1763.74 1387.78C1778.32 1412.38 1800.11 1430.71 1825.19 1441.16C1850.32 1451.61 1878.75 1454.15 1906.56 1447.15C1910.25 1446.22 1913.45 1445.3 1916.16 1444.39C1918.24 1443.69 1920.4 1442.89 1922.65 1441.99C1956.95 1418.3 1985.36 1386.66 2005.12 1349.82C2024.57 1313.51 2035.61 1271.96 2035.61 1227.76C2035.61 1185.36 2025.47 1145.43 2007.49 1110.28C1988.69 1073.46 1961.38 1041.66 1928.23 1017.47C1927.58 1017.01 1926.96 1016.51 1926.38 1016.03C1916.91 1008.59 1906.28 1002.8 1894.89 998.817C1883.47 994.819 1871.23 992.729 1858.6 992.729C1828.4 992.729 1801.06 1004.97 1781.26 1024.73C1761.48 1044.5 1749.24 1071.83 1749.24 1101.99C1749.24 1120.87 1733.94 1136.16 1715.04 1136.16C1696.16 1136.16 1680.86 1120.87 1680.86 1101.99C1680.86 1077.21 1685.95 1053.59 1695.14 1032.14C1687.81 1029.51 1680.79 1026.17 1674.14 1022.18C1648.17 1006.57 1628.18 981.08 1620.3 949.424C1618.6 942.614 1617.51 935.655 1617.06 928.665C1616.6 921.721 1616.76 914.746 1617.54 907.847C1619.62 889.132 1636.47 875.619 1655.2 877.693C1673.94 879.753 1687.45 896.603 1685.39 915.317C1685.04 918.354 1684.97 921.39 1685.16 924.381C1685.36 927.327 1685.81 930.258 1686.55 933.144C1689.86 946.477 1698.25 957.195 1709.13 963.734C1717.87 968.979 1728.24 971.58 1738.89 970.723C1770.48 941.953 1812.5 924.396 1858.6 924.396C1878.57 924.396 1898.41 927.853 1917.32 934.482C1924.71 937.068 1931.93 940.164 1938.95 943.727C1939.47 942.599 1939.95 941.457 1940.41 940.299C1944.11 931.085 1946.16 920.864 1946.16 910.026C1946.16 889.057 1938.22 869.892 1925.17 855.387C1911.89 840.611 1893.49 830.63 1872.94 828.405C1854.21 826.421 1840.64 809.631 1842.61 790.917C1842.81 789.158 1843.12 787.445 1843.56 785.791C1843.92 784.198 1844.25 782.304 1844.52 780.124C1844.75 778.155 1844.88 776.051 1844.88 773.841C1844.88 759.546 1839 746.529 1829.54 737.074C1826.23 733.782 1822.5 730.911 1818.42 728.581C1817.6 739.9 1815.1 750.993 1811.05 761.5C1800.49 788.978 1779.47 812.412 1750.56 825.249C1744.29 828.045 1737.76 830.269 1731.08 831.908C1724.38 833.546 1717.61 834.583 1710.86 835.004C1692.04 836.101 1675.9 821.761 1674.78 802.972C1673.69 784.183 1688.04 768.039 1706.84 766.942C1709.69 766.761 1712.44 766.355 1715.04 765.709C1717.67 765.063 1720.26 764.176 1722.79 763.064C1734.64 757.803 1743.22 748.302 1747.48 737.209C1751.54 726.657 1751.79 714.647 1747.37 703.419C1746.89 702.517 1746.47 701.585 1746.06 700.638C1733.32 675.716 1713.93 654.687 1690.28 639.911C1666.86 625.285 1639.22 616.822 1609.64 616.822C1603.93 616.822 1599.1 617.018 1595.08 617.409C1591.07 617.784 1586.75 618.416 1582.13 619.273C1563.02 624.549 1545.99 634.5 1532.38 647.832C1518.4 661.511 1507.92 678.677 1502.31 697.962C1500.44 704.426 1499.13 711.13 1498.43 717.999C1497.73 724.673 1497.64 731.588 1498.15 738.652C1499.49 757.442 1485.31 773.751 1466.5 775.074C1447.7 776.412 1431.36 762.252 1430.05 743.447C1429.25 732.805 1429.43 721.967 1430.58 711.055C1431.69 700.322 1433.8 689.59 1436.87 679.008C1445.82 648.208 1462.46 620.896 1484.57 599.251C1493.97 590.051 1504.35 581.859 1515.53 574.84C1508.31 569.428 1500.61 564.633 1492.48 560.53C1471.95 550.158 1448.68 544.296 1423.97 544.296C1416.63 544.296 1409.98 544.716 1404 545.498C1397.74 546.325 1391.21 547.663 1384.47 549.466C1371.37 552.969 1357.99 548.339 1349.7 538.689C1335.61 523.688 1318.49 511.482 1299.32 503.064C1280.68 494.887 1260.04 490.333 1238.29 490.333C1216.93 490.333 1196.57 494.752 1178.11 502.719C1158.8 511.046 1141.53 523.207 1127.3 538.208C1115.39 550.714 1096.28 552.202 1082.65 542.387C1071.84 535.292 1060.03 529.7 1047.52 525.897C1035.32 522.199 1022.08 520.2 1008.07 520.2C982.866 520.2 959.281 527.04 939.072 538.96C920.559 549.857 904.826 564.919 893.205 582.776C895.307 609.487 907.018 633.507 924.892 651.365C944.68 671.131 972.026 683.367 1002.23 683.367C1009.23 683.367 1015.75 682.826 1021.67 681.758C1028.03 680.616 1034.31 678.887 1040.43 676.618C1058.06 670.049 1077.68 679.008 1084.25 696.624C1090.8 714.241 1081.84 733.842 1064.21 740.396C1054.3 744.079 1044.09 746.875 1033.69 748.754C1022.85 750.693 1012.32 751.685 1002.23 751.685C953.143 751.685 908.709 731.813 876.544 699.661C852.042 675.19 834.663 643.593 827.77 608.255H746.946C723.246 608.255 701.398 616.296 684.01 629.75C666.136 643.593 652.892 663.119 647.076 685.516C643.097 700.863 629.253 711.04 614.088 711.025V711.13H611.065C583.759 711.13 558.856 721.862 540.376 739.314C533.755 745.552 527.956 752.662 523.164 760.448C530.468 759.742 537.679 759.381 544.772 759.381C610.143 759.381 669.329 785.866 712.174 828.676C721.647 838.131 730.321 848.412 738.087 859.355C739.812 858.814 741.542 858.303 743.275 857.837C774.727 849.464 806.632 854.65 832.79 869.787C858.95 884.939 879.338 910.086 887.752 941.637C892.544 959.84 881.662 978.479 863.444 983.274C845.224 988.069 826.567 977.187 821.772 958.984C818.245 945.741 809.645 935.174 798.597 928.77C790.069 923.84 780.062 921.42 769.787 922.202C777.398 945.41 781.518 970.182 781.518 995.931C781.518 1014.81 766.209 1030.1 747.326 1030.1C728.443 1030.1 713.136 1014.81 713.136 995.931C713.136 949.484 694.291 907.426 663.824 876.987C633.36 846.533 591.268 827.714 544.772 827.714C534.241 827.714 524.234 828.571 514.866 830.254C505.613 831.923 496.478 834.373 487.562 837.59C486.536 838.025 485.487 838.416 484.413 838.762C452.792 850.982 425.626 872.658 406.363 900.361C387.478 927.508 376.382 960.442 376.382 995.871C376.382 1026.04 384.363 1054.34 398.304 1078.75C412.684 1103.95 433.402 1125.13 458.256 1140.11C459.285 1140.68 460.296 1141.35 461.28 1142.04C465.339 1144.91 469.515 1147.36 473.757 1149.34C477.992 1151.33 482.555 1152.96 487.395 1154.27C509.277 1160.09 531.417 1156.51 549.521 1146.04C567.623 1135.57 581.716 1118.21 587.511 1096.49C592.304 1078.27 610.962 1067.41 629.181 1072.2C647.401 1076.98 658.284 1095.62 653.491 1113.82C642.811 1153.88 616.929 1185.81 583.714 1205.02C557.114 1220.41 525.824 1227.7 493.895 1224.51ZM1056.33 1115.55C1048.36 1132.57 1028.09 1139.92 1011.05 1131.95C994.017 1124 986.66 1103.75 994.626 1086.72C1011.92 1050 1038.39 1019.46 1070.6 997.419C1102.85 975.368 1140.91 961.734 1181.35 958.923C1203.45 957.39 1225.49 959.164 1246.74 964.019C1246.22 961.268 1245.73 958.487 1245.31 955.692C1242.91 939.864 1242.24 923.99 1243.22 908.342C1227.65 900.676 1213.66 890.44 1201.75 878.19C1182.87 858.754 1169.22 834.283 1162.93 806.925C1157.02 781.267 1158.04 754.976 1165.28 730.52C1172.52 706.019 1185.98 683.367 1204.92 665.028C1218.41 651.906 1240 652.206 1253.14 665.69C1266.25 679.173 1265.95 700.743 1252.46 713.865C1242.06 723.936 1234.69 736.338 1230.72 749.731C1226.75 763.154 1226.19 777.599 1229.44 791.714C1232.89 806.7 1240.33 820.093 1250.64 830.69C1253.32 833.441 1256.18 836.011 1259.2 838.371C1272.8 804.926 1294.55 774.683 1323.32 750.738C1337.77 738.728 1359.24 740.697 1371.26 755.142C1383.3 769.587 1381.31 791.037 1366.85 803.062C1346.06 820.363 1330.52 842.535 1321.19 867.111C1311.88 891.658 1308.8 918.609 1312.89 945.545C1316.5 969.37 1325.48 991.482 1338.63 1010.51C1339.17 1011.2 1339.65 1011.91 1340.13 1012.63C1341.91 1015.1 1343.74 1017.53 1345.67 1019.89C1362.82 1041.01 1385.43 1057.62 1411.7 1067.47C1429.31 1074.02 1438.3 1093.62 1431.72 1111.24C1425.16 1128.85 1405.56 1137.8 1387.91 1131.26C1349.96 1117.02 1317.36 1093.15 1292.79 1062.87C1290.82 1060.45 1288.91 1058 1287.06 1055.5C1273.08 1045.52 1257.62 1037.99 1241.3 1033.12C1223.48 1027.8 1204.72 1025.68 1185.89 1026.99C1157.89 1028.94 1131.48 1038.39 1109.06 1053.73C1086.63 1069.07 1068.24 1090.24 1056.33 1115.55ZM485.71 1322.7C447.354 1288.64 420.059 1242.34 410.098 1190.05C381.021 1169.83 356.638 1143.27 339.004 1112.38C319.287 1077.85 308 1038.06 308 995.871C308 946.042 323.643 899.669 350.267 861.384C373.558 827.909 405.41 800.642 442.657 782.725C449.451 746.424 467.769 714.076 493.629 689.665C519.39 665.359 552.625 648.885 589.395 644.18C600.991 617.138 619.362 593.629 642.34 575.847C671.384 553.345 707.706 539.921 746.946 539.921H839.927C856.876 515.676 878.877 495.248 904.346 480.232C934.902 462.224 970.38 451.867 1008.07 451.867C1028.32 451.867 1048.22 454.994 1067.28 460.781C1077.81 463.968 1087.98 467.981 1097.69 472.731C1113.79 459.428 1131.75 448.35 1151.13 439.992C1177.93 428.418 1207.43 422 1238.29 422C1269.64 422 1299.61 428.659 1326.82 440.609C1348.77 450.244 1368.88 463.367 1386.47 479.285C1389.33 478.804 1392.23 478.368 1395.18 477.977C1405.17 476.654 1414.78 475.978 1423.97 475.978C1459.48 475.978 1493.21 484.516 1523.2 499.667C1547.93 512.173 1570.06 529.189 1588.43 549.632L1588.67 549.617C1596.36 548.88 1603.37 548.505 1609.64 548.505C1652.35 548.505 1692.36 560.785 1726.32 581.995C1755.24 600.032 1779.73 624.579 1797.72 653.529C1828.92 654.807 1857.15 668.05 1877.89 688.763C1898.43 709.281 1911.63 737.164 1913.12 768.009C1937.51 776.457 1959.07 790.992 1975.93 809.751C1999.91 836.432 2014.55 871.621 2014.55 910.026C2014.55 929.492 2010.7 948.281 2003.72 965.658C2001.16 972.016 1998.2 978.149 1994.84 984.026C2024.73 1010.96 2049.69 1043.24 2068.14 1079.31C2091.06 1124.15 2104 1174.64 2104 1227.76C2104 1283.21 2089.95 1335.69 2065.22 1381.85C2042.58 1424.09 2010.97 1460.88 1973.01 1489.62V1536.68C1973.01 1584.11 1953.61 1627.22 1922.36 1658.44C1891.11 1689.67 1847.97 1709.05 1800.51 1709.05C1781.81 1709.05 1763.59 1705.92 1746.32 1700.15C1742.23 1750.22 1720.07 1795.35 1686.41 1828.97C1649.03 1866.33 1597.43 1889.51 1540.64 1889.51C1487.7 1889.51 1439.27 1869.36 1402.66 1836.36V1926.86C1402.66 1943.71 1395.78 1959 1384.71 1970.06C1373.62 1981.14 1358.32 1988 1341.46 1988H1289.14C1272.27 1988 1256.97 1981.14 1245.89 1970.06C1234.9 1959.09 1228.04 1943.96 1227.94 1927.27C1206.8 1609.52 1088.45 1505.34 947.068 1540.55C965.58 1511.08 983.225 1500.34 965.106 1531.33C949.233 1501.31 921.409 1541.52 874.292 1521.88C844.248 1491.86 777.252 1469.86 777.252 1424.26C777.252 1409.93 779.137 1395.94 782.67 1382.53H642.647C582.604 1382.53 527.584 1359.88 485.71 1322.7Z" fill="#4A4538"/>
</svg>
