<?xml version="1.0" encoding="UTF-8"?>
<svg xmlns="http://www.w3.org/2000/svg" xmlns:xlink="http://www.w3.org/1999/xlink" width="512px" height="512px" viewBox="0 0 512 512" version="1.1">
<g id="surface1">
<path style="fill-rule:nonzero;fill:rgb(85.09804%,85.09804%,85.09804%);fill-opacity:1;stroke-width:53;stroke-linecap:butt;stroke-linejoin:miter;stroke:rgb(64.705884%,61.56863%,51.764709%);stroke-opacity:1;stroke-miterlimit:4;" d="M 38.998489 1205 C 38.998489 561.037674 561.037674 38.998489 1205 38.998489 C 1848.962326 38.998489 2371.001511 561.037674 2371.001511 1205 C 2371.001511 1848.962326 1848.962326 2371.001511 1205 2371.001511 C 561.037674 2371.001511 38.998489 1848.962326 38.998489 1205 Z M 38.998489 1205 " transform="matrix(0.212448,0,0,0.212448,0,0)"/>
<path style=" stroke:none;fill-rule:nonzero;fill:rgb(29.019609%,27.058825%,21.960784%);fill-opacity:1;" d="M 79.164062 297.929688 L 90.328125 297.929688 L 116.582031 362.054688 L 117.488281 362.054688 L 143.742188 297.929688 L 154.90625 297.929688 L 154.90625 375.183594 L 146.15625 375.183594 L 146.15625 316.488281 L 145.402344 316.488281 L 121.261719 375.183594 L 112.8125 375.183594 L 88.667969 316.488281 L 87.914062 316.488281 L 87.914062 375.183594 L 79.164062 375.183594 Z M 79.164062 297.929688 "/>
<path style=" stroke:none;fill-rule:nonzero;fill:rgb(64.705884%,61.56863%,51.764709%);fill-opacity:1;" d="M 234.128906 362.648438 C 232.964844 359.09375 231.433594 355.90625 229.535156 353.089844 C 227.667969 350.238281 225.433594 347.808594 222.828125 345.800781 C 220.257812 343.796875 217.335938 342.265625 214.0625 341.207031 C 210.785156 340.152344 207.195312 339.625 203.289062 339.625 C 196.878906 339.625 191.054688 341.277344 185.808594 344.589844 C 180.5625 347.898438 176.390625 352.773438 173.292969 359.214844 C 170.191406 365.660156 168.644531 373.5625 168.644531 382.925781 C 168.644531 392.292969 170.210938 400.195312 173.34375 406.640625 C 176.476562 413.082031 180.71875 417.960938 186.070312 421.269531 C 191.421875 424.578125 197.441406 426.234375 204.132812 426.234375 C 210.328125 426.234375 215.785156 424.914062 220.503906 422.273438 C 225.257812 419.59375 228.953125 415.828125 231.59375 410.96875 C 234.269531 406.078125 235.605469 400.320312 235.605469 393.699219 L 239.621094 394.546875 L 207.089844 394.546875 L 207.089844 382.925781 L 248.28125 382.925781 L 248.28125 394.546875 C 248.28125 403.453125 246.378906 411.199219 242.578125 417.785156 C 238.8125 424.367188 233.601562 429.472656 226.945312 433.097656 C 220.328125 436.6875 212.722656 438.484375 204.132812 438.484375 C 194.554688 438.484375 186.140625 436.230469 178.890625 431.722656 C 171.671875 427.21875 166.039062 420.8125 161.988281 412.503906 C 157.976562 404.191406 155.96875 394.335938 155.96875 382.925781 C 155.96875 374.371094 157.113281 366.679688 159.402344 359.851562 C 161.726562 352.984375 165 347.140625 169.226562 342.316406 C 173.449219 337.492188 178.449219 333.796875 184.222656 331.226562 C 189.996094 328.65625 196.351562 327.371094 203.289062 327.371094 C 208.992188 327.371094 214.308594 328.234375 219.234375 329.960938 C 224.199219 331.648438 228.621094 334.0625 232.492188 337.195312 C 236.398438 340.292969 239.65625 344.007812 242.261719 348.335938 C 244.867188 352.632812 246.664062 357.402344 247.648438 362.648438 Z M 234.128906 362.648438 "/>
<path style=" stroke:none;fill-rule:nonzero;fill:rgb(29.019609%,27.058825%,21.960784%);fill-opacity:1;" d="M 104.925781 260.144531 C 106.949219 263.9375 109.640625 267.335938 112.835938 270.175781 C 119.152344 275.78125 127.457031 279.199219 136.527344 279.199219 L 172.75 279.199219 C 173.234375 279.199219 173.660156 279.191406 174.03125 279.183594 C 175.402344 277.582031 176.890625 276.109375 178.472656 274.769531 C 174.683594 271.5 171.832031 267.066406 170.53125 261.84375 C 170.171875 260.398438 169.941406 258.917969 169.84375 257.433594 C 169.746094 255.960938 169.78125 254.476562 169.945312 253.011719 C 170.382812 249.035156 173.96875 246.167969 177.949219 246.605469 C 181.929688 247.042969 184.800781 250.621094 184.359375 254.597656 C 184.289062 255.242188 184.273438 255.890625 184.3125 256.527344 C 184.355469 257.152344 184.453125 257.773438 184.605469 258.386719 C 185.308594 261.21875 187.09375 263.496094 189.402344 264.882812 C 191.269531 266.007812 193.480469 266.558594 195.75 266.371094 C 196.554688 266.203125 197.367188 266.0625 198.179688 265.949219 L 198.210938 265.945312 C 203.046875 265.265625 208.054688 265.5 212.988281 266.722656 C 216.875 267.679688 219.25 271.601562 218.292969 275.484375 C 217.339844 279.367188 213.414062 281.742188 209.527344 280.785156 C 206.476562 280.027344 203.371094 279.878906 200.363281 280.28125 C 199.652344 280.441406 198.941406 280.570312 198.230469 280.667969 C 197.164062 280.90625 196.117188 281.21875 195.09375 281.597656 C 190.691406 283.226562 186.757812 286.128906 183.867188 290.082031 C 183.742188 290.277344 183.605469 290.464844 183.464844 290.644531 C 182.265625 292.328125 181.3125 294.195312 180.65625 296.199219 C 180.003906 298.1875 179.652344 300.328125 179.652344 302.582031 C 179.652344 308.265625 181.984375 313.433594 185.742188 317.1875 C 189.5 320.9375 194.671875 323.273438 200.359375 323.273438 C 200.644531 323.273438 200.925781 323.289062 201.203125 323.320312 C 203.933594 323.429688 216.167969 323.660156 228.148438 328.628906 C 228.570312 324.574219 227.5625 321.15625 229.191406 317.472656 C 232.726562 309.480469 238.960938 302.667969 247.25 298.480469 C 250.820312 296.675781 255.179688 298.113281 256.980469 301.683594 C 258.78125 305.253906 257.347656 309.605469 253.777344 311.40625 C 248.589844 314.027344 244.6875 318.296875 242.46875 323.3125 C 240.578125 327.589844 246.460938 325.515625 247.25 330.292969 C 263.519531 341.753906 272.578125 369.570312 275.289062 407.832031 L 283.464844 407.832031 L 297.992188 341.003906 L 329.777344 304.714844 C 323.277344 314.199219 301.292969 372.988281 306.605469 378.300781 C 311.921875 383.609375 319.253906 386.910156 327.304688 386.910156 C 335.359375 386.910156 342.683594 383.609375 348.003906 378.300781 C 353.324219 372.988281 356.621094 365.664062 356.621094 357.621094 L 356.621094 349.132812 C 356.621094 342.011719 354.070312 335.414062 349.769531 330.292969 C 345.472656 325.175781 339.425781 321.523438 332.425781 320.285156 C 329.421875 319.761719 327.171875 317.460938 326.574219 314.652344 C 323.695312 305.125 318.472656 296.664062 311.5625 289.914062 C 304.523438 283.042969 295.746094 277.957031 285.9375 275.351562 C 282.070312 274.332031 279.757812 270.371094 280.769531 266.503906 C 281.792969 262.636719 285.753906 260.324219 289.628906 261.34375 C 301.90625 264.609375 312.875 270.960938 321.660156 279.539062 C 329.449219 287.136719 335.523438 296.488281 339.285156 306.996094 C 347.90625 309.445312 355.363281 314.410156 360.890625 320.996094 C 366.554688 327.738281 370.191406 336.175781 370.984375 345.335938 C 372.269531 346.128906 373.640625 346.789062 375.074219 347.304688 C 377.347656 348.125 379.847656 348.570312 382.515625 348.570312 C 388.589844 348.570312 394.113281 346.082031 398.128906 342.070312 C 402.144531 338.0625 404.632812 332.535156 404.632812 326.464844 L 404.632812 322.300781 C 396.914062 323.476562 389.164062 322.453125 382.199219 319.550781 C 374.039062 316.15625 366.953125 310.195312 362.21875 302.199219 C 360.183594 298.757812 361.324219 294.316406 364.773438 292.28125 C 368.21875 290.242188 372.667969 291.386719 374.703125 294.832031 C 377.800781 300.058594 382.429688 303.953125 387.757812 306.171875 C 393.097656 308.390625 399.136719 308.929688 405.046875 307.445312 C 405.828125 307.246094 406.507812 307.050781 407.085938 306.859375 C 407.527344 306.710938 407.984375 306.539062 408.464844 306.347656 C 415.75 301.316406 421.785156 294.59375 425.984375 286.765625 C 430.117188 279.054688 432.460938 270.226562 432.460938 260.835938 C 432.460938 251.828125 430.308594 243.34375 426.488281 235.875 C 422.492188 228.054688 416.691406 221.296875 409.648438 216.160156 C 409.511719 216.0625 409.378906 215.957031 409.253906 215.855469 C 407.242188 214.273438 404.984375 213.042969 402.566406 212.195312 C 400.140625 211.347656 397.539062 210.902344 394.855469 210.902344 C 388.441406 210.902344 382.632812 213.503906 378.425781 217.703125 C 374.222656 221.902344 371.621094 227.707031 371.621094 234.117188 C 371.621094 238.125 368.371094 241.375 364.355469 241.375 C 360.347656 241.375 357.09375 238.125 357.09375 234.117188 C 357.09375 228.851562 358.175781 223.832031 360.128906 219.277344 C 358.570312 218.71875 357.082031 218.007812 355.667969 217.160156 C 350.152344 213.84375 345.902344 208.429688 344.230469 201.703125 C 343.867188 200.257812 343.636719 198.777344 343.542969 197.292969 C 343.445312 195.816406 343.476562 194.335938 343.644531 192.871094 C 344.085938 188.894531 347.664062 186.023438 351.644531 186.464844 C 355.625 186.902344 358.496094 190.480469 358.058594 194.457031 C 357.984375 195.101562 357.96875 195.746094 358.007812 196.382812 C 358.050781 197.007812 358.148438 197.632812 358.304688 198.246094 C 359.007812 201.078125 360.789062 203.355469 363.101562 204.742188 C 364.957031 205.859375 367.160156 206.410156 369.425781 206.226562 C 376.136719 200.117188 385.0625 196.386719 394.855469 196.386719 C 399.097656 196.386719 403.3125 197.121094 407.332031 198.527344 C 408.902344 199.078125 410.433594 199.734375 411.925781 200.492188 C 412.035156 200.253906 412.140625 200.011719 412.238281 199.765625 C 413.023438 197.808594 413.457031 195.636719 413.457031 193.332031 C 413.457031 188.878906 411.769531 184.808594 409 181.726562 C 406.175781 178.585938 402.269531 176.464844 397.902344 175.992188 C 393.921875 175.570312 391.039062 172.003906 391.460938 168.027344 C 391.5 167.65625 391.566406 167.292969 391.660156 166.941406 C 391.738281 166.601562 391.808594 166.199219 391.863281 165.734375 C 391.914062 165.316406 391.941406 164.871094 391.941406 164.402344 C 391.941406 161.363281 390.691406 158.597656 388.683594 156.589844 C 387.980469 155.890625 387.1875 155.28125 386.320312 154.785156 C 386.144531 157.191406 385.613281 159.546875 384.753906 161.777344 C 382.511719 167.617188 378.046875 172.59375 371.902344 175.324219 C 370.570312 175.917969 369.183594 176.390625 367.765625 176.738281 C 366.339844 177.085938 364.902344 177.304688 363.46875 177.394531 C 359.472656 177.628906 356.042969 174.582031 355.804688 170.589844 C 355.574219 166.597656 358.621094 163.167969 362.613281 162.933594 C 363.21875 162.898438 363.804688 162.8125 364.355469 162.671875 C 364.914062 162.535156 365.464844 162.347656 366.003906 162.113281 C 368.519531 160.992188 370.34375 158.976562 371.25 156.617188 C 372.113281 154.375 372.164062 151.824219 371.226562 149.441406 C 371.125 149.25 371.035156 149.050781 370.945312 148.847656 C 368.242188 143.554688 364.121094 139.085938 359.097656 135.949219 C 354.121094 132.839844 348.25 131.042969 341.964844 131.042969 C 340.75 131.042969 339.726562 131.085938 338.871094 131.167969 C 338.019531 131.246094 337.101562 131.382812 336.121094 131.5625 C 332.0625 132.683594 328.441406 134.796875 325.550781 137.628906 C 322.582031 140.535156 320.355469 144.183594 319.164062 148.28125 C 318.765625 149.652344 318.488281 151.078125 318.339844 152.539062 C 318.191406 153.957031 318.171875 155.425781 318.277344 156.925781 C 318.5625 160.917969 315.550781 164.382812 311.554688 164.664062 C 307.5625 164.949219 304.089844 161.9375 303.8125 157.945312 C 303.640625 155.683594 303.679688 153.378906 303.925781 151.0625 C 304.160156 148.78125 304.609375 146.503906 305.261719 144.253906 C 307.160156 137.710938 310.695312 131.90625 315.394531 127.308594 C 317.390625 125.355469 319.597656 123.613281 321.972656 122.125 C 320.4375 120.972656 318.800781 119.957031 317.074219 119.082031 C 312.714844 116.878906 307.769531 115.632812 302.519531 115.632812 C 300.960938 115.632812 299.546875 115.722656 298.277344 115.890625 C 296.945312 116.066406 295.558594 116.351562 294.128906 116.734375 C 291.34375 117.476562 288.503906 116.492188 286.742188 114.445312 C 283.746094 111.257812 280.109375 108.664062 276.039062 106.875 C 272.078125 105.136719 267.691406 104.171875 263.074219 104.171875 C 258.535156 104.171875 254.210938 105.109375 250.289062 106.800781 C 246.183594 108.570312 242.515625 111.15625 239.492188 114.339844 C 236.960938 117 232.902344 117.3125 230.007812 115.230469 C 227.710938 113.722656 225.203125 112.535156 222.542969 111.726562 C 219.953125 110.941406 217.140625 110.515625 214.164062 110.515625 C 208.808594 110.515625 203.796875 111.96875 199.503906 114.5 C 195.570312 116.816406 192.230469 120.015625 189.757812 123.808594 C 190.207031 129.484375 192.695312 134.585938 196.492188 138.382812 C 200.695312 142.582031 206.503906 145.179688 212.921875 145.179688 C 214.410156 145.179688 215.792969 145.066406 217.050781 144.839844 C 218.402344 144.59375 219.738281 144.226562 221.039062 143.746094 C 224.78125 142.351562 228.949219 144.253906 230.347656 147.996094 C 231.738281 151.738281 229.835938 155.902344 226.089844 157.296875 C 223.984375 158.078125 221.816406 158.671875 219.605469 159.070312 C 217.300781 159.484375 215.066406 159.695312 212.921875 159.695312 C 202.492188 159.695312 193.054688 155.472656 186.21875 148.640625 C 181.015625 143.441406 177.324219 136.730469 175.859375 129.222656 L 158.6875 129.222656 C 153.652344 129.222656 149.011719 130.929688 145.316406 133.789062 C 141.519531 136.730469 138.707031 140.878906 137.46875 145.636719 C 136.625 148.898438 133.683594 151.058594 130.460938 151.054688 L 130.460938 151.078125 L 129.820312 151.078125 C 124.019531 151.078125 118.726562 153.359375 114.800781 157.066406 C 113.394531 158.390625 112.164062 159.902344 111.144531 161.554688 C 112.695312 161.40625 114.230469 161.328125 115.734375 161.328125 C 129.625 161.328125 142.199219 166.957031 151.300781 176.050781 C 153.3125 178.058594 155.15625 180.242188 156.804688 182.570312 C 157.171875 182.453125 157.539062 182.34375 157.90625 182.246094 C 164.589844 180.46875 171.367188 181.570312 176.925781 184.785156 C 182.480469 188.003906 186.8125 193.347656 188.601562 200.050781 C 189.621094 203.917969 187.308594 207.875 183.4375 208.894531 C 179.566406 209.914062 175.601562 207.601562 174.582031 203.734375 C 173.835938 200.921875 172.007812 198.675781 169.660156 197.316406 C 167.847656 196.269531 165.722656 195.753906 163.539062 195.921875 C 165.15625 200.851562 166.03125 206.113281 166.03125 211.582031 C 166.03125 215.59375 162.78125 218.84375 158.769531 218.84375 C 154.757812 218.84375 151.503906 215.59375 151.503906 211.582031 C 151.503906 201.714844 147.5 192.78125 141.027344 186.3125 C 134.554688 179.84375 125.613281 175.847656 115.734375 175.847656 C 113.5 175.847656 111.371094 176.027344 109.382812 176.386719 C 107.417969 176.742188 105.476562 177.261719 103.582031 177.945312 C 103.363281 178.035156 103.140625 178.121094 102.914062 178.195312 C 96.195312 180.789062 90.421875 185.394531 86.332031 191.28125 C 82.320312 197.046875 79.960938 204.042969 79.960938 211.570312 C 79.960938 217.980469 81.65625 223.992188 84.617188 229.179688 C 87.675781 234.53125 92.074219 239.03125 97.355469 242.214844 C 97.574219 242.335938 97.789062 242.476562 98 242.625 C 98.859375 243.234375 99.746094 243.753906 100.648438 244.175781 C 101.546875 244.597656 102.519531 244.945312 103.546875 245.222656 C 108.195312 246.457031 112.898438 245.699219 116.746094 243.472656 C 120.589844 241.25 123.585938 237.5625 124.816406 232.945312 C 125.832031 229.078125 129.796875 226.769531 133.667969 227.785156 C 137.539062 228.800781 139.851562 232.761719 138.832031 236.628906 C 136.5625 245.140625 131.066406 251.921875 124.007812 256.003906 C 118.359375 259.273438 111.710938 260.824219 104.925781 260.144531 Z M 224.414062 236.996094 C 222.722656 240.613281 218.414062 242.175781 214.796875 240.480469 C 211.175781 238.792969 209.613281 234.488281 211.304688 230.871094 C 214.980469 223.070312 220.605469 216.582031 227.445312 211.898438 C 234.296875 207.214844 242.382812 204.320312 250.976562 203.722656 C 255.671875 203.394531 260.351562 203.773438 264.867188 204.804688 C 264.757812 204.21875 264.652344 203.628906 264.5625 203.035156 C 264.054688 199.671875 263.910156 196.300781 264.121094 192.976562 C 260.8125 191.347656 257.839844 189.171875 255.308594 186.570312 C 251.296875 182.441406 248.398438 177.242188 247.0625 171.429688 C 245.808594 165.980469 246.023438 160.394531 247.5625 155.199219 C 249.101562 149.992188 251.960938 145.179688 255.984375 141.285156 C 258.847656 138.496094 263.4375 138.558594 266.226562 141.425781 C 269.011719 144.289062 268.949219 148.871094 266.082031 151.660156 C 263.875 153.800781 262.308594 156.433594 261.464844 159.277344 C 260.621094 162.128906 260.5 165.199219 261.191406 168.199219 C 261.925781 171.382812 263.503906 174.226562 265.695312 176.480469 C 266.265625 177.0625 266.875 177.609375 267.515625 178.109375 C 270.402344 171.003906 275.023438 164.578125 281.136719 159.492188 C 284.207031 156.941406 288.769531 157.359375 291.320312 160.429688 C 293.878906 163.496094 293.457031 168.054688 290.382812 170.609375 C 285.96875 174.285156 282.667969 178.996094 280.683594 184.214844 C 278.707031 189.429688 278.050781 195.15625 278.921875 200.878906 C 279.6875 205.941406 281.597656 210.636719 284.390625 214.679688 C 284.503906 214.828125 284.605469 214.976562 284.707031 215.132812 C 285.085938 215.65625 285.476562 216.171875 285.886719 216.671875 C 289.527344 221.160156 294.332031 224.6875 299.914062 226.78125 C 303.652344 228.171875 305.5625 232.335938 304.167969 236.082031 C 302.773438 239.820312 298.609375 241.722656 294.859375 240.335938 C 286.796875 237.308594 279.871094 232.238281 274.652344 225.804688 C 274.230469 225.289062 273.828125 224.769531 273.433594 224.238281 C 270.464844 222.117188 267.179688 220.519531 263.710938 219.484375 C 259.925781 218.355469 255.941406 217.902344 251.941406 218.183594 C 245.992188 218.597656 240.378906 220.605469 235.617188 223.863281 C 230.851562 227.121094 226.945312 231.621094 224.414062 236.996094 Z M 103.1875 281.003906 C 95.039062 273.769531 89.242188 263.933594 87.125 252.824219 C 80.945312 248.527344 75.765625 242.886719 72.019531 236.324219 C 67.832031 228.988281 65.433594 220.535156 65.433594 211.570312 C 65.433594 200.984375 68.757812 191.132812 74.414062 183 C 79.363281 175.886719 86.128906 170.09375 94.042969 166.289062 C 95.484375 158.578125 99.375 151.703125 104.871094 146.519531 C 110.34375 141.355469 117.402344 137.855469 125.214844 136.855469 C 127.679688 131.109375 131.582031 126.117188 136.464844 122.335938 C 142.632812 117.558594 150.351562 114.707031 158.6875 114.707031 L 178.441406 114.707031 C 182.042969 109.554688 186.714844 105.214844 192.125 102.023438 C 198.617188 98.199219 206.15625 96 214.164062 96 C 218.464844 96 222.691406 96.664062 226.742188 97.890625 C 228.980469 98.570312 231.140625 99.421875 233.203125 100.429688 C 236.621094 97.605469 240.4375 95.25 244.554688 93.476562 C 250.25 91.015625 256.515625 89.652344 263.074219 89.652344 C 269.734375 89.652344 276.101562 91.066406 281.878906 93.605469 C 286.542969 95.652344 290.816406 98.441406 294.554688 101.824219 C 295.160156 101.722656 295.777344 101.628906 296.402344 101.546875 C 298.527344 101.265625 300.566406 101.121094 302.519531 101.121094 C 310.0625 101.121094 317.230469 102.933594 323.601562 106.152344 C 328.855469 108.808594 333.554688 112.425781 337.460938 116.769531 L 337.511719 116.765625 C 339.144531 116.609375 340.632812 116.527344 341.964844 116.527344 C 351.039062 116.527344 359.539062 119.136719 366.753906 123.644531 C 372.898438 127.476562 378.101562 132.691406 381.921875 138.839844 C 388.550781 139.113281 394.546875 141.925781 398.953125 146.328125 C 403.316406 150.683594 406.121094 156.609375 406.4375 163.160156 C 411.621094 164.957031 416.199219 168.042969 419.78125 172.03125 C 424.878906 177.699219 427.988281 185.175781 427.988281 193.332031 C 427.988281 197.46875 427.167969 201.460938 425.6875 205.152344 C 425.144531 206.503906 424.515625 207.804688 423.800781 209.054688 C 430.148438 214.777344 435.453125 221.632812 439.371094 229.296875 C 444.242188 238.824219 446.992188 249.550781 446.992188 260.835938 C 446.992188 272.617188 444.007812 283.765625 438.753906 293.570312 C 433.941406 302.546875 427.226562 310.359375 419.164062 316.46875 L 419.164062 326.464844 C 419.164062 336.542969 415.039062 345.699219 408.402344 352.332031 C 401.761719 358.96875 392.597656 363.085938 382.515625 363.085938 C 378.542969 363.085938 374.671875 362.417969 371.003906 361.195312 C 370.132812 371.832031 365.425781 381.417969 358.273438 388.5625 C 350.332031 396.5 339.371094 401.421875 327.304688 401.421875 C 316.058594 401.421875 305.769531 397.140625 297.992188 390.132812 L 297.992188 409.359375 C 297.992188 412.9375 296.53125 416.1875 294.179688 418.535156 C 291.824219 420.890625 288.574219 422.347656 284.992188 422.347656 L 273.875 422.347656 C 270.292969 422.347656 267.039062 420.890625 264.6875 418.535156 C 262.351562 416.203125 260.894531 412.992188 260.875 409.445312 C 256.382812 341.941406 231.238281 319.808594 201.203125 327.285156 C 205.136719 321.027344 208.882812 318.746094 205.035156 325.328125 C 201.664062 318.949219 195.75 327.492188 185.742188 323.320312 C 179.359375 316.941406 165.125 312.269531 165.125 302.582031 C 165.125 299.535156 165.527344 296.566406 166.277344 293.714844 L 136.527344 293.714844 C 123.773438 293.714844 112.085938 288.902344 103.1875 281.003906 Z M 103.1875 281.003906 "/>
</g>
</svg>
